<?xml version="1.0" encoding="UTF-8"?>
<svg id="kaze" xmlns="http://www.w3.org/2000/svg" viewBox="0 0 1920 1080">
  <defs>
    <style>
      .cls-1 {
        stroke: #000;
        stroke-miterlimit: 10;
      }
    </style>
  </defs>
  <path class="cls-1" d="M1244.43,540c0,116.11-64.66,216.57-158.67,264.71-14.01,7.18-28.67,13.2-43.87,17.93l13.39-38.16,129.17-368.14c-42.7-83.29-127.2-139.99-224.45-139.99-140.32,0-254.08,118.04-254.08,263.65,0,107.43,61.92,199.86,150.76,240.93l-10.38,29.6c-100.49-45.51-170.73-149.51-170.73-270.53,0-162.95,127.34-295.05,284.43-295.05,99.47,0,187.02,52.96,237.85,133.2,8.6,13.57,16.15,27.92,22.52,42.92l-16.14,46.01-102.34,291.67c67.68-47.37,112.18-127.66,112.18-218.74,0-6.49-.23-12.93-.67-19.3h0l20.81-59.32c6.66,25.03,10.21,51.39,10.21,78.62h0Z"/>
  <path class="cls-1" d="M960,335.48c-80.56,0-149.85,50.12-180.43,121.95l29.43,11.12c26.16-59.4,83.93-100.68,151-100.68,13.74,0,27.08,1.73,39.85,5l-19.2,54.71c-6.69-1.31-13.59-2-20.65-2-60.91,0-110.3,51.23-110.3,114.42,0,42.91,22.77,80.3,56.47,99.88l-19.2,54.72c-55.02-28.03-92.89-86.73-92.89-154.6,0-15.92,2.08-31.32,5.98-45.95l-29.44-11.11c-5.07,18.11-7.78,37.26-7.78,57.06,0,107.46,79.89,195.56,181.42,203.88v91.56h35.32v-149.44h-35.32v25.37c-8.22-.8-16.28-2.23-24.11-4.23l19.2-54.71c6.69,1.31,13.59,2,20.65,2,60.91,0,110.3-51.23,110.3-114.42,0-42.91-22.77-80.3-56.47-99.88l19.2-54.72c46.76,23.83,81.15,69.8,90.4,124.74l17.81-50.76c-30.16-72.87-99.96-123.9-181.25-123.9h0ZM916.15,611.43c-22.72-15.03-37.78-41.41-37.78-71.43,0-46.77,36.55-84.68,81.64-84.68,3.61,0,7.17.25,10.67.72l-54.52,155.4ZM1041.64,540c0,46.77-36.55,84.68-81.64,84.68-3.61,0-7.17-.25-10.67-.72l54.52-155.4c22.72,15.03,37.78,41.41,37.78,71.43h0Z"/>
  <path class="cls-1" d="M1871.6,541.15c0,115.71-64.21,215.88-157.7,264.22-13.93,7.21-28.52,13.27-43.64,18.05l13.47-38.4,128.25-366.3c-30.54-60.32-82.96-106.86-146.3-128.28l-173.79,495.32c29.35,12.3,61.43,19.07,95.03,19.07,22.5,0,44.31-3.03,65.09-8.74l-12.31,35.08c-17.02,3.3-34.58,5.03-52.53,5.03-37.32,0-72.96-7.46-105.61-21.01l-33.95,96.77-33.19-12.53,35.1-100.03c-87.53-50.3-146.78-147.11-146.78-258.26,0-12.81.78-25.41,2.31-37.79l29.68,5.43c-1.26,10.61-1.9,21.42-1.9,32.38,0,97.64,51.15,182.87,127.14,228.44l171.26-488.1c-14.39-2.62-29.2-3.99-44.31-3.99-120.75,0-221.82,87.39-247.68,204.54l-29.68-5.43c28.36-131.92,141.88-230.54,277.6-230.54,18.67,0,36.92,1.86,54.58,5.43l29.7-84.64,33.19,12.53-28.55,81.38c61.94,21.12,114.48,63.72,149.45,119.3,8.51,13.51,15.97,27.79,22.27,42.72h0l-16.34,46.57-101.27,289.55c66.9-47.49,110.81-127.31,110.81-217.77,0-6.03-.19-12.02-.58-17.95l21.11-60.18c6.56,24.88,10.07,51.06,10.07,78.1h0Z"/>
  <path class="cls-1" d="M616.52,541.15c0,115.71-64.21,215.88-157.7,264.22-13.93,7.21-28.52,13.27-43.64,18.05l13.47-38.4,128.25-366.3c-30.54-60.32-82.96-106.86-146.3-128.28l-173.79,495.32c29.35,12.3,61.43,19.07,95.03,19.07,22.5,0,44.31-3.03,65.09-8.74l-12.31,35.08c-17.02,3.3-34.58,5.03-52.53,5.03-37.32,0-72.96-7.46-105.61-21.01l-33.95,96.77-33.19-12.53,35.1-100.03c-87.53-50.3-146.78-147.11-146.78-258.26,0-12.81.78-25.41,2.31-37.79l29.68,5.43c-1.26,10.61-1.9,21.42-1.9,32.38,0,97.64,51.15,182.87,127.14,228.44l171.26-488.1c-14.39-2.62-29.2-3.99-44.31-3.99-120.75,0-221.82,87.39-247.68,204.54l-29.68-5.43c28.36-131.92,141.88-230.54,277.6-230.54,18.67,0,36.92,1.86,54.58,5.43l29.7-84.64,33.19,12.53-28.55,81.38c61.94,21.12,114.48,63.72,149.45,119.3,8.51,13.51,15.97,27.79,22.27,42.72h0l-16.34,46.57-101.27,289.55c66.9-47.49,110.81-127.31,110.81-217.77,0-6.03-.19-12.02-.58-17.95l21.11-60.18c6.56,24.88,10.07,51.06,10.07,78.1h0Z"/>
</svg>