<?xml version="1.0" encoding="UTF-8"?>
<svg id="WiLI" xmlns="http://www.w3.org/2000/svg" viewBox="0 0 1080 1080">
  <defs>
    <style>
      .cls-1 {
        fill: none;
      }

      .cls-1, .cls-2 {
        stroke: #000;
        stroke-miterlimit: 10;
      }

      .cls-3 {
        stroke-width: 0px;
      }
    </style>
  </defs>
  <rect class="cls-2" x="205.61" y="723.94" width="168.3" height="305.36" rx="84.15" ry="84.15" transform="translate(477.13 -27.44) rotate(30)"/>
  <path class="cls-2" d="M560.01,48.27c-198.96,0-360.26,161.28-360.26,360.26s161.3,360.26,360.26,360.26,360.26-161.3,360.26-360.26S758.99,48.27,560.01,48.27ZM560.01,685.85c-153.16,0-277.33-124.17-277.33-277.33s124.17-277.33,277.33-277.33,277.33,124.17,277.33,277.33-124.17,277.33-277.33,277.33Z"/>
  <circle class="cls-1" cx="560.01" cy="408.53" r="277.33" transform="translate(-124.85 515.64) rotate(-45)"/>
  <g>
    <path class="cls-3" d="M717.77,279.31h66.81c-56.25,97.43-112.5,194.85-168.75,292.28h-66.81v-176.57c-33.98,58.86-67.96,117.71-101.94,176.57h-66.81v-292.28h66.81v176.57c33.98-58.86,67.96-117.71,101.94-176.57h66.81v176.57c33.98-58.86,67.96-117.71,101.94-176.57Z"/>
    <path class="cls-1" d="M784.57,279.31c-56.25,97.43-112.5,194.85-168.75,292.28h-66.81v-176.57c-33.98,58.86-67.96,117.71-101.94,176.57h-66.81v-292.28h66.81v176.57c33.98-58.86,67.96-117.71,101.94-176.57h66.81v176.57c33.98-58.86,67.96-117.71,101.94-176.57h66.81Z"/>
  </g>
</svg>