<?xml version="1.0" encoding="UTF-8"?>
<svg id="maru" xmlns="http://www.w3.org/2000/svg" viewBox="0 0 1024 1024">
  <defs>
    <style>
      .cls-1 {
        stroke: #000;
        stroke-miterlimit: 10;
      }
      @media (prefers-color-scheme: dark) {
        path {
            fill: #fff;
        }
      }
    </style>
  </defs>
  <path class="cls-1" d="M896.5,513.5c0,150.99-86.92,281.69-213.46,344.76-18.86,9.41-38.6,17.31-59.07,23.55l18.23-50.11,173.6-477.96c-41.34-78.71-112.29-139.44-198.03-167.38l-235.24,646.32c39.73,16.05,83.15,24.88,128.63,24.88,30.45,0,59.98-3.96,88.1-11.4l-16.66,45.78c-23.04,4.31-46.81,6.56-71.1,6.56-50.52,0-98.76-9.73-142.95-27.41l-45.96,126.27-44.92-16.35,47.51-130.52c-118.48-65.64-198.68-191.95-198.68-336.99,0-16.71,1.06-33.16,3.13-49.31l40.17,7.09c-1.7,13.84-2.57,27.95-2.57,42.25,0,127.4,69.23,238.62,172.1,298.08l231.81-636.89c-19.48-3.42-39.52-5.21-59.98-5.21-163.44,0-300.25,114.03-335.25,266.89l-40.17-7.08c38.39-172.14,192.05-300.82,375.76-300.82,25.27,0,49.97,2.43,73.88,7.09l40.2-110.44,44.92,16.35-38.65,106.19c83.84,27.56,154.96,83.14,202.29,155.67,11.52,17.63,21.62,36.26,30.15,55.74h0s-22.12,60.77-22.12,60.77l-137.08,377.82c90.56-61.97,149.99-166.12,149.99-284.16,0-7.87-.26-15.68-.79-23.42l28.58-78.52c8.88,32.46,13.63,66.63,13.63,101.91Z"/>
</svg>